<svg width="172" height="24" viewBox="0 0 172 24" fill="none" xmlns="http://www.w3.org/2000/svg">
<path d="M36.1562 20.5C35.7188 22.1667 34.2708 23 31.8125 23H26.2031C24.4531 23 23.5781 22.4948 23.5781 21.4844C23.5781 21.1302 23.6875 20.6667 23.9062 20.0938L26.5 13.3438L18.75 21.8438C17.9167 22.7708 17.0052 23.2344 16.0156 23.2344C15.8281 23.2344 15.6302 23.2188 15.4219 23.1875C14.2344 23.0521 13.6406 22.4583 13.6406 21.4062C13.6406 21 13.7344 20.5625 13.9219 20.0938L17.7656 10.1719L8.125 21.8125C7.47917 22.6042 6.53125 23 5.28125 23H2.10938L8.42188 4.95312H-0.25L2.10938 1.01562H12.5469C13.9844 1.01562 14.7031 1.54167 14.7031 2.59375C14.7031 3 14.6042 3.48958 14.4062 4.0625L11.0469 13.75L17.7656 6.14062C18.6198 5.16146 19.276 4.52604 19.7344 4.23438C20.4948 3.75521 21.4792 3.51562 22.6875 3.51562C23.0312 3.51562 23.3906 3.63542 23.7656 3.875C24.3385 4.25 24.625 4.80729 24.625 5.54688C24.625 6.00521 24.5104 6.52083 24.2812 7.09375L21.25 14.9688L27.2656 8.92188C28.1198 8.06771 28.6875 7.55208 28.9688 7.375C29.4583 7.09375 30.1615 6.95833 31.0781 6.96875C31.4427 6.96875 31.8281 7.10417 32.2344 7.375C32.8594 7.78125 33.1719 8.375 33.1719 9.15625C33.1719 9.60417 33.0677 10.099 32.8594 10.6406L29.125 20.5H36.1562ZM55.7656 20.5C55.5469 21.3021 55.0469 21.9323 54.2656 22.3906C53.5677 22.7969 52.7708 23 51.875 23H43.1719C38.1094 23 35.5781 21.474 35.5781 18.4219C35.5781 16.4635 36.4427 14.9271 38.1719 13.8125C39.6615 12.8542 41.4323 12.375 43.4844 12.375H45.75C47.0729 12.375 48.2344 12.5781 49.2344 12.9844C50.5677 13.526 51.2656 14.349 51.3281 15.4531C51.3802 16.5677 50.8438 17.4948 49.7188 18.2344H44.5469L46.2344 14.875H42.9375L41.6562 18.6406C41.5833 18.8594 41.5469 19.0573 41.5469 19.2344C41.5469 20.0781 42.224 20.5 43.5781 20.5H55.7656ZM83.9688 12.375C83.2812 14.0417 82.1302 14.875 80.5156 14.875H72.0781C71.6719 17.8542 70.1354 20.0469 67.4688 21.4531C65.5104 22.4844 63.224 23 60.6094 23H57.7656C57.2552 23 56.8073 22.875 56.4219 22.625C55.9115 22.2917 55.6562 21.7865 55.6562 21.1094C55.6562 20.724 55.7396 20.2865 55.9062 19.7969L61.4844 4.15625H67.1094L61.2812 20.4688C63.5208 20.5208 65.1146 19.625 66.0625 17.7812C65.0938 17.1771 64.6094 16.3542 64.6094 15.3125C64.6094 14.5 64.9219 13.8073 65.5469 13.2344C66.1823 12.6615 66.9375 12.375 67.8125 12.375H83.9688ZM94.0469 20.5C93.8281 21.3021 93.3281 21.9323 92.5469 22.3906C91.849 22.7969 91.0521 23 90.1562 23H81.4531C76.3906 23 73.8594 21.474 73.8594 18.4219C73.8594 16.4635 74.724 14.9271 76.4531 13.8125C77.9427 12.8542 79.7135 12.375 81.7656 12.375H84.0312C85.3542 12.375 86.5156 12.5781 87.5156 12.9844C88.849 13.526 89.5469 14.349 89.6094 15.4531C89.6615 16.5677 89.125 17.4948 88 18.2344H82.8281L84.5156 14.875H81.2188L79.9375 18.6406C79.8646 18.8594 79.8281 19.0573 79.8281 19.2344C79.8281 20.0781 80.5052 20.5 81.8594 20.5H94.0469ZM106.062 20.5C105.802 21.4167 105.203 22.0938 104.266 22.5312C103.609 22.8438 102.906 23 102.156 23H96.1406C94.599 23 93.8281 22.474 93.8281 21.4219C93.8281 21.151 93.8854 20.8438 94 20.5L99.7969 4.15625H105.328L99.5 20.5H106.062Z" fill="black"/>
<path d="M142.438 4.34375C142.427 5.71875 141.948 6.98958 141 8.15625L130.953 20.5C129.599 22.1667 128.073 23 126.375 23H122.375L123.953 4.95312H116.719L119.047 1.01562H126.609C127.453 1.01562 128.161 1.27604 128.734 1.79688C129.307 2.31771 129.594 2.97917 129.594 3.78125C129.594 3.88542 129.589 3.98958 129.578 4.09375L127.953 19.9844L137.516 8.0625C136.536 7.875 135.724 7.44271 135.078 6.76562C134.443 6.07812 134.125 5.27083 134.125 4.34375C134.125 3.3125 134.531 2.43229 135.344 1.70312C136.156 0.963542 137.135 0.59375 138.281 0.59375C139.438 0.59375 140.422 0.963542 141.234 1.70312C142.047 2.44271 142.448 3.32292 142.438 4.34375ZM150.562 5.96875C150.562 7.01042 150.156 7.89583 149.344 8.625C148.542 9.35417 147.573 9.71875 146.438 9.71875C145.281 9.71875 144.297 9.35417 143.484 8.625C142.682 7.89583 142.281 7.01042 142.281 5.96875C142.281 4.9375 142.682 4.05729 143.484 3.32812C144.297 2.59896 145.281 2.23438 146.438 2.23438C147.573 2.23438 148.542 2.59896 149.344 3.32812C150.156 4.05729 150.562 4.9375 150.562 5.96875ZM151.688 20.5C151.417 21.4167 150.854 22.0938 150 22.5312C149.385 22.8438 148.719 23 148 23H141.828C140.339 23 139.594 22.375 139.594 21.125C139.594 20.7708 139.667 20.3906 139.812 19.9844L142.531 12.375H148.203L145.312 20.5H151.688ZM171.875 20.5C171.375 22.1667 170.099 23 168.047 23H162.125C160.438 23 159.594 22.4583 159.594 21.375C158.458 22.6667 157.062 23.3125 155.406 23.3125C154.188 23.3125 153.198 22.9375 152.438 22.1875C151.677 21.4375 151.297 20.4583 151.297 19.25C151.297 17.0729 152.13 15.3542 153.797 14.0938C155.307 12.9479 157.177 12.375 159.406 12.375H168.328L165.391 20.5H171.875ZM161.797 14.875H158.344L157.25 18.5156C157.188 18.7448 157.156 18.9531 157.156 19.1406C157.156 20.0469 158.042 20.5 159.812 20.5L161.797 14.875Z" fill="#F57B0A"/>
</svg>
