<svg width="64" height="64" viewBox="0 0 64 64" fill="none" xmlns="http://www.w3.org/2000/svg">
<g clip-path="url(#clip0_5_443)">
<path d="M30.5 9.1C30.5 9.1 27.9 10.2 25 7.4C23.3 5.8 20.4 4.4 19.2 4H18.1C18.1 4 14.3 4 10.3 7.4C7.9 9.4 5.7 9.6 5.3 9.1H4.2C2.8 12.2 0 11.8 0 11.8V42.2H34.2L31.6 9.1H30.5Z" fill="#3E4347"/>
<path d="M31.6001 9.1C31.6001 9.1 29.0001 10.2 26.1001 7.4C22.6001 4 19.2001 4 19.2001 4C19.2001 4 15.4001 4 11.4001 7.4C8.1001 10.2 5.3001 9.1 5.3001 9.1C3.9001 12.2 1.1001 11.9 1.1001 11.9V42.3H35.3001V11.8C35.3001 11.8 32.8001 12.2 31.6001 9.1Z" fill="#62696D"/>
<path d="M1.1001 35.5L22.5001 47V56L1.1001 42.2V35.5Z" fill="#3E4347"/>
<path d="M22.5 56L64 49V41L22.5 47V56ZM21.5 55.4L21.9 59.6L22.5 60V56L21.5 55.4Z" fill="#62696D"/>
<path d="M22.4999 60L23.8999 59.6L24.5999 55.7L22.4999 56V60ZM63.5999 53V49.1L60.8999 49.6L61.7999 53.3L63.5999 53ZM0.399902 42.2V45.4H1.8999L2.8999 42.2H0.399902Z" fill="#3E4347"/>
<path d="M1.1001 35.5L22.5001 47L64.0001 41L35.0001 31L1.1001 35.5Z" fill="#94989B"/>
<path d="M2.30005 29.7L23.2001 38V45.6L2.30005 35.3V29.7Z" fill="#DAE3EA"/>
<path d="M23.2 45.6L61.9 40.5V33.7L23.2 38V45.6Z" fill="#FFDD7D"/>
<path d="M2.30005 29.7L23.2001 38L61.9001 33.7L35.3 27L2.30005 29.7Z" fill="white"/>
<path d="M4.1001 25.6C4.1001 25.6 5.3001 28.8 9.1001 30.3C9.1001 30.3 14.8001 28.6 22.4001 28.7C22.4001 28.7 19.4001 26 18.6001 23.7C18.6001 23.8 12.0001 21.4 4.1001 25.6ZM21.4001 24.2C21.4001 24.2 22.2001 27.4 24.8001 28.9C24.8001 28.9 28.7001 27.2 33.8001 27.3C33.8001 27.3 31.8001 24.6 31.2001 22.3C31.3001 22.4 26.8001 20 21.4001 24.2Z" fill="#B2C1C0"/>
<path d="M7.5 23.2C7.5 23.2 10.1 26.7 11.3 31.4C11.3 31.4 17 29.1 24.6 29.2C24.6 29.2 21.6 25.4 20.8 22.3C20.8 22.3 15.2 21.2 7.5 23.2ZM22.6 22.2C22.6 22.2 24.9 25.4 26 29.6C26 29.6 31.1 27.5 37.9 27.6C37.9 27.6 35.2 24.2 34.5 21.4C34.5 21.4 29.5 20.4 22.6 22.2Z" fill="#DAE3EA"/>
<path d="M11.8 40C11.8 40 11.2 35.8 11.5 34.6C11.7 33.7 12.7 32.4 13.2 31.9C14.6 30.8 19.5 30.4 19.5 30.4C19.5 30.4 37.2 27.9 43 28.1C43.9 28.1 46.3 29.7 46.3 29.7L18.7 33.2L15.7 38.5L15.4 41.9L11.8 40Z" fill="#A53838"/>
<path d="M17.4 35.7L15.8 38.5L15.5 41.8L23.2 45.6V38L17.4 35.7Z" fill="#A53838"/>
<path d="M23.2 38V45.6L61.9 40.5V33.7L23.2 38Z" fill="#ED4C5C"/>
<path d="M17.3999 35.7L23.1999 38L61.8999 33.7L46.0999 29.7L18.7999 33.1L17.3999 35.7Z" fill="#C94747"/>
<path d="M54.3999 31.8C54.3999 31.8 53.6999 30.6 53.3999 30.3C52.9999 30 51.7999 29.9 51.7999 29.9C51.7999 29.9 51.3999 29 51.1999 28.9C50.6999 28.7 49.2999 29.6 49.2999 29.6C49.2999 29.6 48.4999 28.5 48.1999 28.5C40.8999 28.5 25.5999 30.3 18.4999 32.4C17.6999 32.6 16.4999 34.5 16.0999 35.4C15.0999 37.4 13.7999 42 13.4999 44.5C13.1999 46.8 14.5999 53.4 14.5999 53.4C14.5999 53.4 15.7999 48.9 16.8999 47.6C17.3999 47 17.8999 50.3 17.8999 50.3C17.8999 50.3 18.7999 46.1 19.0999 45.7C19.4999 45.2 20.0999 48.2 20.0999 48.2C20.0999 48.2 20.6999 41.6 21.1999 40C21.4999 38.9 22.5999 37 23.2999 36.7C30.2999 33.6 44.9999 31.1 52.1999 31.3C52.5999 31.4 54.3999 31.8 54.3999 31.8Z" fill="#ED4C5C"/>
</g>
<defs>
<clipPath id="clip0_5_443">
<rect width="64" height="64" fill="white"/>
</clipPath>
</defs>
</svg>
