<svg width="80" height="81" viewBox="0 0 80 81" fill="none" xmlns="http://www.w3.org/2000/svg">
<rect y="0.235352" width="80" height="80" rx="40" fill="white"/>
<path d="M53.7734 38.8882L34.075 26.8378C33.7429 26.6345 33.3625 26.5235 32.9732 26.5162C32.5838 26.509 32.1996 26.6059 31.8602 26.7968C31.524 26.9848 31.2439 27.2589 31.0488 27.591C30.8537 27.9231 30.7506 28.3011 30.75 28.6863V52.7843C30.7525 53.3621 30.9844 53.9152 31.3946 54.322C31.8048 54.7289 32.3597 54.9562 32.9375 54.9541C33.3408 54.9539 33.7362 54.8427 34.0805 54.6328L53.7734 42.5824C54.09 42.3894 54.3516 42.1183 54.5331 41.7951C54.7146 41.4719 54.81 41.1074 54.81 40.7367C54.81 40.366 54.7146 40.0015 54.5331 39.6782C54.3516 39.355 54.09 39.0839 53.7734 38.891V38.8882ZM32.9375 52.7583V28.7041L52.6018 40.7353L32.9375 52.7583Z" fill="#FF9A62"/>
</svg>
